# xmcd CD database file
#
# Track frame offsets:
#	150
#	13400
#	33580
#	52895
#	68920
#	93735
#	110948
#	126968
#	149280
#	166215
#	185700
#	202830
#	218828
#
# Disc length: 3191 seconds
#
# Revision: 0
# Processed by: cddbd v1.5.2PL0 Copyright (c) Steve Scherf et al.
# Submitted via: CDex 1.70beta3
#
DISCID=c70c750d
DTITLE=ジミー荒木 - ミッドナイト・ジャズ・セッション
DYEAR=1959
DGENRE=Jazz
TTITLE0=ノース・コースト
TTITLE1=満月
TTITLE2=ブロークン・リズム
TTITLE3=ロンドンの霧の日
TTITLE4=トゥー・ブラザーズ
TTITLE5=恋したみたいだ
TTITLE6=ハーレム・ノクターン
TTITLE7=ブルース・オン・バッハ
TTITLE8=僕の気持ちを知らないか
TTITLE9=希望がわいた
TTITLE10=デイ・ドリーム
TTITLE11=Ａ列車で行こう
TTITLE12=巴里の空の下
EXTD=YEAR: 1959
EXTT0=
EXTT1=
EXTT2=
EXTT3=
EXTT4=
EXTT5=
EXTT6=
EXTT7=
EXTT8=
EXTT9=
EXTT10=
EXTT11=
EXTT12=
PLAYORDER=
